<?xml version="1.0" encoding="UTF-8" standalone="no"?>
<!-- Created with Inkscape (http://www.inkscape.org/) -->

<svg
   width="185.59494mm"
   height="185.89084mm"
   viewBox="0 0 185.59494 185.89084"
   version="1.1"
   id="svg5"
   xml:space="preserve"
   sodipodi:docname="logo_vectorizado.svg"
   xmlns:inkscape="http://www.inkscape.org/namespaces/inkscape"
   xmlns:sodipodi="http://sodipodi.sourceforge.net/DTD/sodipodi-0.dtd"
   xmlns="http://www.w3.org/2000/svg"
   xmlns:svg="http://www.w3.org/2000/svg"><sodipodi:namedview
     id="namedview7"
     pagecolor="#ffffff"
     bordercolor="#000000"
     borderopacity="0.25"
     inkscape:showpageshadow="2"
     inkscape:pageopacity="0.0"
     inkscape:pagecheckerboard="0"
     inkscape:deskcolor="#d1d1d1"
     inkscape:document-units="mm"
     showgrid="false"
     inkscape:zoom="0.5321733"
     inkscape:cx="487.62311"
     inkscape:cy="475.40905"
     inkscape:window-width="1440"
     inkscape:window-height="872"
     inkscape:window-x="0"
     inkscape:window-y="0"
     inkscape:window-maximized="1"
     inkscape:current-layer="layer1" /><defs
     id="defs2" /><g
     inkscape:label="Capa 1"
     inkscape:groupmode="layer"
     id="layer1"
     transform="translate(-5.3511874,-4.9636901)"><path
       style="fill:#000000;stroke-width:0.264583"
       d="M 91.180634,190.66005 C 49.214734,188.04726 13.880404,156.25408 6.1283968,114.13162 5.0966454,108.52534 5.0906432,86.864714 6.1193202,81.376247 11.032457,55.162398 25.426614,33.673217 47.788966,19.167217 c 1.67349,-1.085558 3.161771,-2.02155 3.307292,-2.079981 0.145521,-0.05843 1.51474,-0.782495 3.042708,-1.609032 8.329753,-4.505882 18.108171,-7.8174615 28.563801,-9.673478 6.335543,-1.1246446 24.137313,-1.1204801 30.489833,0.00713 41.48455,7.363775 71.98935,39.111738 77.32765,80.478984 0.56596,4.385718 0.56839,18.45914 0.004,22.81776 -6.43522,49.69223 -49.05892,84.68215 -99.343556,81.55145 z m 7.414532,-7.18998 c 0.0034,-0.1819 -1.088916,-4.45651 -2.427388,-9.49912 -2.433587,-9.16839 -2.433587,-9.16839 -4.12805,-9.34985 -0.931955,-0.0998 -1.730518,-0.14122 -1.774584,-0.092 -0.04407,0.0492 -1.584939,3.66131 -3.424164,8.02693 -1.839224,4.36563 -3.578196,8.44352 -3.864382,9.06198 -0.520338,1.12448 -0.520338,1.12448 1.063725,1.16417 0.871233,0.0218 1.717974,0.0516 1.881645,0.0661 0.163672,0.0146 0.627013,-0.86651 1.029642,-1.95792 0.73206,-1.98438 0.73206,-1.98438 2.546686,-1.91485 4.581634,0.17555 4.451086,0.11413 5.00951,2.35664 0.558067,2.24107 0.769284,2.42443 2.82439,2.45185 0.834877,0.0111 1.258853,-0.0942 1.26297,-0.31395 z m -8.803595,-7.79628 c -0.400182,-0.0606 -0.727604,-0.13822 -0.727604,-0.17244 0,-0.0342 0.572804,-1.44817 1.272897,-3.14212 1.272897,-3.07991 1.272897,-3.07991 2.067735,0.21207 0.856501,3.54739 0.796234,3.61895 -2.613028,3.10249 z m 22.621879,6.63784 c 1.20431,-0.20145 1.19905,-0.0957 0.21522,-4.32534 -0.88732,-3.81473 -0.90875,-3.71049 0.76268,-3.71049 1.27741,0 1.27741,0 4.23448,3.07598 2.95708,3.07599 2.95708,3.07599 4.72625,2.69873 0.97305,-0.20749 1.76918,-0.51038 1.76918,-0.6731 0,-0.5139 -4.90646,-5.62413 -5.87885,-6.12299 -0.93016,-0.4772 -0.93016,-0.4772 0.0127,-1.03352 3.76733,-2.22279 1.88228,-9.53116 -2.46827,-9.56952 -0.50933,-0.004 -1.93808,0.21404 -3.175,0.48563 -5.54773,1.21807 -6.19499,1.37057 -6.31147,1.48706 -0.11715,0.11714 1.44531,7.3578 3.18691,14.76862 0.74852,3.18508 0.83378,3.38735 1.36614,3.241 0.31229,-0.0858 1.01428,-0.23078 1.55998,-0.32206 z m -1.78609,-13.06359 c -0.26598,-1.16453 -0.43428,-2.15564 -0.37401,-2.20246 0.19834,-0.15411 4.34246,-0.97187 4.92506,-0.97187 1.37583,0 2.25697,2.82349 1.18413,3.79439 -0.42349,0.38325 -4.09926,1.49728 -4.94033,1.49728 -0.17242,0 -0.52698,-0.94448 -0.79485,-2.11734 z m -39.025893,10.04528 c 0,-0.1336 1.143632,-3.1329 2.541405,-6.66511 4.538911,-11.46996 4.200056,-10.10572 2.653506,-10.68309 -0.739008,-0.27589 -1.411732,-0.53312 -1.494941,-0.57163 -0.08321,-0.0385 -0.309213,0.37822 -0.502235,0.92604 -0.193021,0.54783 -1.110538,2.91297 -2.038924,5.25586 -0.928388,2.34288 -1.687978,4.39671 -1.687978,4.56406 0,0.16734 -0.119062,0.30426 -0.264583,0.30426 -0.145521,0 -0.269254,-0.50601 -0.274961,-1.12448 -0.01818,-1.96959 -1.231873,-12.13072 -1.475359,-12.35177 -0.315888,-0.28679 -2.737617,-1.17911 -2.843919,-1.04788 -0.06262,0.0773 -4.124468,10.27109 -6.701324,16.81795 -0.132736,0.33723 2.224715,1.49575 2.684589,1.31928 0.154168,-0.0592 0.719617,-1.28326 1.256554,-2.72023 0.536938,-1.43696 1.384245,-3.62469 1.882905,-4.86162 0.49866,-1.23693 1.000387,-2.48708 1.114949,-2.77812 0.131556,-0.33422 0.477083,1.89487 0.937887,6.05056 0.401275,3.61885 0.828619,6.67638 0.949656,6.79451 0.773917,0.75533 3.262773,1.34377 3.262773,0.77141 z m 68.674163,-7.15602 c 2.82952,-1.61273 5.14459,-3.02648 5.14459,-3.14167 0,-0.34715 -1.35377,-2.65734 -1.5572,-2.65734 -0.10398,0 -0.30216,0.10644 -0.44041,0.23653 -0.26954,0.25364 -6.92278,3.99681 -7.10407,3.99681 -0.0597,0 -0.4331,-0.56555 -0.82988,-1.25677 -0.39679,-0.69123 -0.94601,-1.63146 -1.2205,-2.08941 -0.49908,-0.83264 -0.49908,-0.83264 2.94524,-2.75671 1.89438,-1.05824 3.44432,-2.02537 3.44432,-2.14918 0,-0.18329 -1.16152,-2.19447 -1.48049,-2.56348 -0.0475,-0.055 -1.57369,0.74872 -3.39152,1.78594 -1.81784,1.03722 -3.40006,1.88558 -3.51605,1.88523 -0.16681,-5.3e-4 -1.49914,-2.26534 -1.87791,-3.19228 -0.0437,-0.10702 0.25392,-0.36851 0.66146,-0.5811 0.87489,-0.45637 6.51885,-3.66633 6.65681,-3.78602 0.0523,-0.0453 -0.14048,-0.4167 -0.42831,-0.82526 -0.28783,-0.40856 -0.60649,-1.01073 -0.70815,-1.33815 -0.2564,-0.82582 -0.19245,-0.84879 -4.42573,1.58965 -2.08628,1.20173 -4.09089,2.33819 -4.4547,2.52547 -1.37826,0.70949 -1.97362,1.30558 -1.6787,1.68076 0.15377,0.19563 0.63554,1.01053 1.07061,1.81089 0.71981,1.3242 5.56716,9.91532 7.12838,12.63386 0.35517,0.61846 0.70694,1.12448 0.78169,1.12448 0.0748,0 2.45099,-1.31951 5.28052,-2.93225 z m -89.549572,-3.61619 c 0.904775,-1.38143 6.638079,-9.81756 8.375129,-12.32338 0.789509,-1.13892 1.394976,-2.10189 1.345481,-2.13994 -1.820157,-1.39889 -2.717607,-1.81111 -2.983786,-1.37052 -0.154665,0.25601 -0.764371,1.14026 -1.354905,1.96501 -3.500477,4.88885 -8.891005,13.12695 -8.643488,13.20945 0.160282,0.0534 0.745342,0.43873 1.300136,0.85624 1.280414,0.96355 1.195856,0.97203 1.961433,-0.19686 z m -9.680146,-7.74298 c 1.037256,-1.06225 1.037256,-1.06225 -1.666095,-3.77483 -1.486842,-1.49192 -2.70691,-2.82961 -2.711257,-2.97265 -0.0043,-0.14303 2.406666,-2.60341 5.357813,-5.4675 5.365718,-5.20743 5.365718,-5.20743 4.175093,-6.39652 -1.190625,-1.18909 -1.190625,-1.18909 -7.799321,5.26678 l -6.608695,6.45587 3.452163,3.51253 c 1.898687,1.93189 3.622445,3.71636 3.830568,3.96548 0.555901,0.66542 0.822553,0.58566 1.969731,-0.58916 z m 115.826038,-1.14848 c 3.96604,-1.67069 5.85726,-6.47493 3.73665,-9.4922 -2.17292,-3.09168 -5.25374,-3.53124 -9.05229,-1.29154 -3.56894,2.10433 -5.84569,1.45911 -4.38992,-1.24408 0.88469,-1.64278 2.46041,-2.26793 3.81008,-1.51163 0.62535,0.35043 0.72284,0.3108 1.78594,-0.72592 1.37684,-1.34269 1.37699,-1.34952 0.0483,-2.18829 -2.25395,-1.42285 -4.74371,-1.05111 -7.0767,1.0566 -2.72813,2.4647 -2.89743,5.7557 -0.4196,8.1565 2.02633,1.96333 3.91533,1.95066 7.78731,-0.0523 2.94804,-1.52497 3.45792,-1.60607 4.36906,-0.69494 2.30848,2.30848 -1.4953,6.09745 -4.36502,4.34802 -0.9134,-0.55683 -0.9134,-0.55683 -1.91033,0.5963 -1.21211,1.40203 -1.20965,1.37374 -0.18323,2.10462 1.75812,1.25189 4.19116,1.6417 5.85974,0.93882 z m -50.34548,-2.66842 c 26.71139,-4.54007 46.76942,-24.60715 50.97643,-50.99941 0.65925,-4.13574 0.66278,-13.930408 0.007,-18.072486 C 152.84175,58.428907 128.4695,37.015788 98.721259,36.238882 58.224644,35.181265 28.143952,73.372437 38.554632,112.62788 c 3.210478,12.10571 11.517247,24.78771 20.74871,31.67719 0.433811,0.32375 1.384062,1.04537 2.111666,1.60358 7.757803,5.95178 19.532841,10.41547 30.427084,11.53433 2.451666,0.25179 12.262258,-0.0701 14.684378,-0.48175 z M 60.617874,137.57346 c -1.137626,-1.27804 -2.300914,-2.53276 -2.58508,-2.78827 -0.505335,-0.45437 -0.460851,-0.52483 2.028341,-3.21289 2.545009,-2.74833 2.545009,-2.74833 1.714611,-3.63648 C 47.89417,113.08882 44.86836,90.716925 54.27914,72.508231 c 2.965442,-5.737762 6.648617,-10.33825 12.113144,-15.129984 1.221539,-1.071145 1.076171,-1.12912 3.023708,1.205942 0.878769,1.053629 2.251501,2.660972 3.050514,3.571875 1.218224,1.388814 11.642424,13.541735 15.842568,18.469859 0.676217,0.793417 1.295286,1.37913 1.375714,1.301586 0.681821,-0.657389 3.668406,-15.047905 5.350645,-25.781461 1.132009,-7.222821 1.051536,-7.018174 2.759784,-7.018174 1.703967,0 1.719033,0.03349 2.527893,5.61825 1.4441,9.970675 4.82321,26.691877 5.53862,27.407286 0.238,0.238009 3.06999,-2.992197 17.43578,-19.887475 5.49122,-6.458104 4.84714,-5.841464 5.59174,-5.353582 2.2727,1.489128 7.63781,7.411691 10.19157,11.250515 5.3241,8.003188 7.79461,16.477784 7.79461,26.737924 0,12.251028 -3.6417,22.253678 -11.49547,31.574568 -2.19303,2.6027 -2.19303,2.6027 -1.28379,3.57188 3.11887,3.32445 3.77373,4.07533 3.69144,4.23277 -0.30071,0.57535 -4.91936,5.6042 -5.0904,5.5425 -0.11411,-0.0412 -1.24107,-1.38453 -2.50436,-2.98526 -1.26329,-1.60073 -2.33693,-2.95443 -2.38587,-3.00822 -0.0489,-0.0538 -0.66012,0.31586 -1.35818,0.82146 -3.09489,2.2416 -8.92331,5.22947 -10.2011,5.22947 -1.26353,0 -1.88829,-1.19713 -1.24857,-2.39246 0.14883,-0.27808 1.49617,-1.10266 2.99411,-1.83241 2.7539,-1.34162 7.31864,-4.32393 7.31864,-4.78152 0,-0.13672 -1.17144,-1.82738 -2.60321,-3.75703 -3.1434,-4.23647 -5.87753,-8.47147 -7.94322,-12.30355 -3.24893,-6.02709 -3.49859,-6.26026 -6.51919,-6.08859 -5.0617,0.28768 -9.464245,4.24501 -8.970289,8.06317 0.353386,2.73158 -0.09292,3.7928 -1.532453,3.64385 -0.335368,-0.0347 -0.761535,-0.0783 -0.947037,-0.0969 -0.64933,-0.065 -0.912746,-1.39068 -0.596839,-3.00364 0.424722,-2.16854 0.0535,-3.2797 -1.744533,-5.22179 -1.994651,-2.15447 -4.158295,-3.21973 -6.896425,-3.39546 -3.243178,-0.20813 -3.667078,0.16987 -6.763198,6.03087 -2.298385,4.35089 -4.015171,7.0103 -8.067,12.49631 -1.368211,1.85251 -2.410862,3.49245 -2.317004,3.64431 0.346183,0.56014 4.86686,3.42003 7.474871,4.72879 1.478963,0.74218 2.813018,1.5811 2.964569,1.86428 0.703067,1.31369 0.08414,2.40503 -1.360707,2.3993 -0.963817,-0.004 -6.178019,-2.64738 -8.993082,-4.55943 -2.559542,-1.73849 -2.559542,-1.73849 -4.991603,1.34554 -1.337633,1.69622 -2.519175,3.11767 -2.625648,3.15878 -0.106474,0.0411 -1.124379,-0.97092 -2.262008,-2.24896 z m 4.965565,-12.31173 c 0.216059,-0.32742 1.248611,-1.66687 2.29456,-2.97656 4.23346,-5.30093 12.613732,-18.46664 15.830082,-24.869621 1.494628,-2.975449 4.297553,-9.695318 4.297553,-10.303164 0,-0.1855 -2.523271,-2.765481 -5.607265,-5.733288 -3.083996,-2.967808 -7.559273,-7.301014 -9.945058,-9.629347 -2.385785,-2.328334 -4.489931,-4.268745 -4.675883,-4.312023 -0.951844,-0.221539 -7.129164,7.603543 -9.127469,11.562159 -3.307366,6.551857 -4.369594,11.165666 -4.361352,18.943615 0.01095,10.334759 2.808097,18.322789 9.195345,26.259899 1.494679,1.85736 1.552871,1.88669 2.099487,1.05833 z m 66.788301,-1.05833 c 4.23907,-5.26502 6.94785,-10.85311 8.6251,-17.79322 0.8457,-3.4993 0.84241,-13.389789 -0.006,-16.933354 -1.50606,-6.293221 -4.07705,-11.86914 -7.68575,-16.668743 -1.26429,-1.68152 -4.80465,-5.423958 -5.13108,-5.423958 -0.1064,0 -0.83237,0.625078 -1.61327,1.389062 -0.7809,0.763985 -4.20801,4.067969 -7.6158,7.342188 -12.93205,12.425186 -11.59429,10.732844 -10.59255,13.400136 3.51577,9.361263 12.59974,24.411789 21.36296,35.394619 0.99766,1.25036 1.1028,1.22238 2.65601,-0.70673 z M 98.985842,109.77886 c 1.733078,-1.62319 3.882778,-3.12098 6.188098,-4.31154 2.62104,-1.3536 3.20461,-2.01355 3.20461,-3.624 0,-1.28649 -3.36758,-12.041969 -3.72952,-11.911456 -0.11308,0.04077 -1.64587,1.488001 -3.40619,3.216056 -3.196314,3.137723 -3.201354,3.141258 -3.77179,2.645833 -0.314161,-0.272846 -1.868321,-1.746242 -3.453691,-3.274211 -1.585368,-1.527969 -2.961487,-2.807483 -3.058044,-2.843363 -0.09656,-0.03588 -0.98529,2.404901 -1.974966,5.423958 -2.562421,7.816793 -2.479842,8.431963 1.393298,10.379343 2.008341,1.00978 5.730679,3.62996 6.730974,4.738 0.650803,0.7209 0.635354,0.72451 1.877221,-0.43862 z M 98.328056,91.527355 c 0.0021,-0.109141 0.849133,-1.150938 1.882474,-2.315105 3.50653,-3.950475 3.30102,-3.413789 2.50566,-6.543452 -0.37976,-1.49433 -1.1056,-4.264777 -1.61298,-6.156548 -0.50738,-1.891771 -1.418775,-5.43388 -2.02533,-7.871354 -0.606554,-2.437474 -1.193178,-4.431771 -1.30361,-4.431771 -0.110429,0 -0.313544,0.506015 -0.451366,1.124479 -0.137821,0.618463 -0.810678,3.267604 -1.495237,5.886979 -0.684556,2.619375 -1.598655,6.131719 -2.031331,7.805209 -0.432675,1.673489 -0.974166,3.721584 -1.203314,4.551317 -0.416634,1.508612 -0.416634,1.508612 2.408018,4.828646 2.549911,2.997111 3.316018,3.715915 3.327016,3.1216 z m -65.92868,2.248958 c 0.73311,-8.637725 0.831003,-7.768167 -0.89739,-7.971303 -1.935544,-0.227486 -1.863638,-0.369166 -2.095371,4.128537 -0.190909,3.705342 -0.190909,3.705342 -3.802716,3.51776 -1.986495,-0.103172 -5.39496,-0.347887 -7.574367,-0.543817 -2.179408,-0.195926 -3.978447,-0.333602 -3.997865,-0.305945 -0.204837,0.291769 -0.306937,3.357581 -0.111816,3.357581 0.139712,0 3.382339,0.235201 7.205839,0.522668 3.8235,0.28747 7.54713,0.563666 8.274734,0.61377 0.727604,0.0501 1.633078,0.112559 2.012163,0.138787 0.689246,0.04769 0.689246,0.04769 0.986789,-3.458038 z m 135.775014,2.857032 c 2.11005,-0.210614 5.32473,-0.509281 7.14375,-0.663702 6.28597,-0.533633 5.90945,-0.398373 5.73782,-2.061218 -0.082,-0.794525 -0.18819,-1.483691 -0.23598,-1.531477 -0.0478,-0.04779 -2.734,0.179086 -5.96936,0.504158 -3.23537,0.325072 -5.87814,0.525534 -5.87282,0.445468 0.005,-0.08006 0.57085,-0.497313 1.25677,-0.927216 9.37392,-5.875227 10.11699,-6.476585 9.94051,-8.044731 -0.0924,-0.820806 -0.20174,-1.532784 -0.24304,-1.582174 -0.0413,-0.04939 -1.36422,0.03588 -2.93981,0.189476 -1.5756,0.153602 -5.00784,0.468535 -7.62722,0.699852 -8.64567,0.763509 -7.95198,0.565039 -7.8439,2.244231 0.0515,0.799785 0.13315,1.496144 0.1815,1.547466 0.0758,0.08045 1.78984,-0.0675 10.44053,-0.901142 1.4552,-0.140235 1.4552,-0.140235 0.46348,0.46609 -6.50821,3.979016 -10.24054,6.717628 -10.2467,7.518564 -0.0212,2.758242 -0.19371,2.69606 5.81447,2.096355 z M 33.338731,84.010341 c 0.367274,-1.321009 0.388038,-1.673553 0.109525,-1.859574 -0.189016,-0.126243 -1.016146,-0.652322 -1.838066,-1.169059 -1.4944,-0.939522 -1.4944,-0.939522 -0.859434,-2.969075 0.349231,-1.116253 0.772666,-2.476034 0.940968,-3.021737 0.279061,-0.904828 0.389673,-0.992391 1.25631,-0.994487 3.209296,-0.0078 3.597469,-0.192794 4.064966,-1.937599 0.237691,-0.887111 0.390512,-1.654583 0.339604,-1.705491 -0.05091,-0.05091 -2.753943,0.03277 -6.006745,0.185959 -3.252802,0.153186 -7.66035,0.351256 -9.794552,0.440161 -3.880368,0.161642 -3.880368,0.161642 -4.339778,1.858838 -0.252675,0.933458 -0.41151,1.735723 -0.352965,1.782813 0.05854,0.04709 0.701756,0.484892 1.42936,0.9729 0.727604,0.488005 3.823229,2.672569 6.879167,4.854588 6.627665,4.732325 7.294438,5.191797 7.534169,5.191797 0.101354,0 0.388218,-0.733515 0.637471,-1.630034 z M 24.637924,76.227275 C 23.328237,75.295 22.167377,74.531251 22.058237,74.530052 c -0.109141,-0.0013 -0.198313,-0.09147 -0.198161,-0.200615 1.52e-4,-0.10914 1.488433,-0.234291 3.307291,-0.278114 1.818859,-0.04382 3.307016,-0.0028 3.307016,0.09122 0,0.463844 -1.132693,3.821936 -1.282542,3.802346 -0.09497,-0.01241 -1.244229,-0.785339 -2.553917,-1.717612 z m 144.703736,3.016319 c 4.85444,-1.604052 7.3997,-4.418195 7.37607,-8.155302 -0.0427,-6.757501 -6.98129,-9.562503 -14.19995,-5.740504 -4.40757,2.333641 -5.96801,6.373329 -4.00875,10.377909 1.91266,3.909346 5.81384,5.176253 10.83263,3.517897 z m -5.49184,-2.978867 c -2.01554,-0.730763 -3.08083,-2.508157 -2.70476,-4.512784 0.37906,-2.020588 3.43155,-4.040362 7.20562,-4.767826 3.22912,-0.622419 6.0689,2.779612 4.68042,5.607111 -1.22183,2.488142 -6.55987,4.623933 -9.18128,3.673499 z m 17.55373,-6.794572 c 0,-1.150871 -0.94877,-2.844638 -1.67478,-2.989842 -1.16002,-0.232005 -3.3523,-0.185848 -3.3523,0.07058 0,1.240041 0.58883,1.803934 2.58773,2.478148 2.41993,0.816221 2.43935,0.819735 2.43935,0.441114 z m -24.53092,-4.372782 c 5.97302,-3.375618 13.82577,-7.845245 13.90708,-7.915632 0.16376,-0.141751 -1.40711,-2.761652 -1.65603,-2.76193 -0.13273,-1.48e-4 -1.14476,0.520999 -2.24896,1.158105 -1.10419,0.637106 -3.8531,2.198457 -6.10867,3.469672 -6.39683,3.605178 -7.70975,4.395957 -7.61577,4.58702 0.68186,1.386224 1.3898,2.691183 1.45996,2.691183 0.0488,0 1.06689,-0.552788 2.26239,-1.228418 z M 43.778185,59.960093 c 1.124762,-1.354396 1.09815,-1.406239 -1.907996,-3.71712 -2.516394,-1.934401 -2.516394,-1.934401 -1.595207,-3.135686 0.506653,-0.66071 1.243706,-1.668844 1.637898,-2.240299 3.474405,-5.036817 -4.504346,-11.759766 -8.731689,-7.357382 -1.095008,1.140346 -4.975434,5.950455 -4.959279,6.147435 0.006,0.07276 1.345136,1.175065 2.975931,2.449565 1.630796,1.274503 4.81055,3.796665 7.066123,5.604809 2.255573,1.808144 4.220104,3.293304 4.365625,3.300355 0.145521,0.007 0.662387,-0.466207 1.148594,-1.051677 z M 34.62249,50.54153 c -1.89447,-1.496762 -1.89447,-1.496762 -0.817089,-2.783576 1.895295,-2.263719 2.981211,-2.610715 4.409387,-1.408986 1.40566,1.182786 1.336852,2.299436 -0.276871,4.493295 -1.09134,1.483675 -1.052412,1.487207 -3.315427,-0.300733 z m 120.51192,8.217747 c 1.71382,-0.572302 1.72903,-0.600364 1.1762,-2.170169 -0.61854,-1.756431 -0.49173,-1.683435 -2.10362,-1.210923 -2.28705,0.670427 -4.04004,-0.289336 -4.44201,-2.431995 -0.47955,-2.556211 4.64166,-7.510627 7.77306,-7.519898 2.61105,-0.0077 4.27159,2.598555 3.09409,4.856306 -0.54109,1.0375 -0.54404,1.029965 0.77249,1.975424 1.52017,1.091703 1.57543,1.079254 2.38047,-0.536263 2.43636,-4.889138 -2.02443,-10.514687 -7.51236,-9.473922 -3.27474,0.62104 -7.6256,3.916926 -9.05905,6.86245 -2.71713,5.583293 2.19099,11.562337 7.92073,9.64899 z m -8.94675,-17.632401 c 1.65901,-4.981667 3.02823,-9.189625 3.04271,-9.351013 0.024,-0.26794 -2.29695,-2.227156 -2.63839,-2.227156 -0.0806,0 -2.84779,1.810007 -6.14927,4.022238 -3.30148,2.212232 -6.9199,4.623247 -8.04093,5.357813 -1.12102,0.734565 -2.04375,1.399458 -2.05052,1.477536 -0.0144,0.166577 2.54492,2.106996 2.77906,2.106996 0.0876,0 0.88219,-0.556283 1.76578,-1.236188 1.8518,-1.42493 1.4961,-1.501942 4.80402,1.040124 1.98279,1.523728 1.98279,1.523728 1.33122,3.439446 -0.35837,1.053645 -0.61881,2.055866 -0.57875,2.22716 0.0668,0.285543 2.28083,2.158473 2.58638,2.187887 0.0728,0.007 1.48967,-4.063175 3.14869,-9.044843 z m -4.35813,-1.210963 c -0.44691,-0.390454 -1.16128,-0.963951 -1.5875,-1.27444 -0.42621,-0.310488 -0.71541,-0.616558 -0.64265,-0.680154 0.31138,-0.272163 5.3006,-3.650112 5.3912,-3.650112 0.129,0 -1.97231,5.895258 -2.18635,6.133873 -0.0892,0.09941 -0.52779,-0.138716 -0.9747,-0.529167 z m -88.615801,9.145815 c 1.488498,-1.094742 1.535983,-0.8764 -0.840306,-3.863872 -1.116571,-1.403749 -2.1545,-2.714739 -2.306508,-2.913308 -0.394388,-0.515192 0.95617,-1.623341 1.978454,-1.623341 0.433019,0 2.32764,0.595313 4.210264,1.322917 1.882624,0.727604 3.577267,1.322917 3.765873,1.322917 0.454528,0 3.097641,-1.923381 3.025174,-2.201405 -0.120036,-0.460539 -6.416699,-2.917757 -7.778218,-3.035385 -1.384046,-0.119573 -1.384046,-0.119573 -0.79375,-0.947121 2.032011,-2.848719 -0.885653,-7.940769 -4.549936,-7.940769 -1.498862,0 -2.671826,0.68677 -6.89831,4.038956 -1.382448,1.096473 -2.561873,2.027102 -2.620946,2.068068 -0.121344,0.08414 0.648647,1.08299 6.945537,9.009843 2.456461,3.092318 4.517409,5.622396 4.57989,5.622396 0.06248,0 0.639731,-0.386953 1.282782,-0.859896 z M 46.399904,37.738757 c -1.522823,-1.924026 -1.51742,-1.774701 -0.106889,-2.953758 2.532261,-2.116707 3.607519,-2.466076 4.63727,-1.506718 1.59344,1.484514 1.288703,2.701756 -1.151517,4.599652 -2.172153,1.689405 -1.923479,1.699647 -3.378864,-0.139176 z m 23.6595,0.249775 c 2.812666,-1.324452 5.196445,-2.458376 5.297289,-2.519834 0.304128,-0.185346 -1.087758,-2.883667 -1.442183,-2.795826 -0.180766,0.04481 -1.970231,0.848477 -3.976582,1.785938 -2.006351,0.937464 -3.689773,1.70448 -3.740936,1.70448 -0.179438,0 -2.018186,-4.058057 -1.942134,-4.286218 0.04228,-0.126849 1.504209,-0.888962 3.248723,-1.693582 1.744515,-0.80462 3.281003,-1.570316 3.414422,-1.701547 0.223054,-0.219398 -0.433647,-2.14691 -0.932106,-2.735854 -0.107408,-0.126908 -1.749777,0.49817 -3.649707,1.389063 -1.899931,0.890893 -3.524018,1.619805 -3.609081,1.619805 -0.173818,0 -1.785988,-3.460958 -1.658398,-3.560202 0.04494,-0.03496 1.748589,-0.819534 3.785881,-1.7435 2.037291,-0.923966 3.754122,-1.716309 3.81518,-1.760763 0.133742,-0.09737 -1.069681,-2.714053 -1.319101,-2.868203 -0.09643,-0.0596 -0.816557,0.20145 -1.600288,0.580104 -0.783727,0.378654 -3.091833,1.454271 -5.129125,2.390259 -4.095205,1.881452 -4.312145,2.021431 -3.904448,2.51932 0.154001,0.188069 0.815768,1.532568 1.470596,2.987776 0.654828,1.455209 2.202606,4.747091 3.439504,7.315293 1.236901,2.568205 2.328328,4.919689 2.425396,5.225521 0.261173,0.822883 0.45044,0.764532 6.007098,-1.85203 z m 60.946606,-5.413751 c 3.73933,-7.642535 3.13308,-7.078474 6.04046,-5.620079 0.85147,0.427113 1.58098,0.739008 1.62112,0.693099 0.22671,-0.259242 1.19638,-2.354603 1.19638,-2.585267 0,-0.223233 -10.80574,-5.832578 -11.23578,-5.832578 -0.0704,0 -0.38331,0.565547 -0.69525,1.256771 -0.31195,0.691224 -0.62081,1.348025 -0.68637,1.459558 -0.0656,0.111533 0.81176,0.638279 1.94961,1.170548 1.13786,0.532269 2.1033,0.99142 2.14542,1.020337 0.0421,0.02892 -0.74887,1.704825 -1.75777,3.724243 -5.66637,11.34176 -5.21622,10.065452 -3.80853,10.798232 0.69101,0.359703 1.40602,0.65955 1.58892,0.666326 0.1829,0.0068 1.8217,-3.03126 3.64179,-6.75119 z m -10.14417,-6.011575 c 1.13215,-4.688131 2.06079,-8.726638 2.06363,-8.974459 0.005,-0.437763 -1.35721,-0.999646 -2.43203,-1.003149 -0.50247,-0.0016 -0.39833,-0.33557 -2.08255,6.677877 -0.6201,2.582238 -1.17078,4.651649 -1.22374,4.598693 -0.053,-0.05296 -0.69976,-2.463353 -1.43734,-5.356436 -0.73758,-2.893083 -1.47746,-5.788017 -1.64418,-6.433187 -0.31856,-1.232792 -0.41501,-1.296243 -2.58761,-1.702401 -0.94656,-0.176956 -0.96445,-0.16418 -1.14623,0.818671 -0.19463,1.052388 -3.04675,12.8696 -3.74293,15.508116 -0.22423,0.849806 -0.36876,1.579868 -0.32118,1.622365 0.1354,0.120949 2.93483,0.688581 3.00017,0.608336 0.0321,-0.0394 0.62481,-2.452884 1.31717,-5.3633 0.69237,-2.910417 1.31406,-5.470261 1.38154,-5.688542 0.0675,-0.218282 0.86539,2.520156 1.77312,6.085417 1.65042,6.482292 1.65042,6.482292 3.21788,6.909075 0.8621,0.234728 1.62108,0.379534 1.68663,0.321789 0.0656,-0.05774 1.04549,-3.940733 2.17765,-8.628865 z m -36.00311,6.821602 c 4.073178,-1.404819 5.049136,-6.938155 1.736704,-9.846508 -1.159349,-1.017921 -2.224781,-1.329899 -5.647653,-1.653735 -3.416602,-0.323243 -4.477658,-1.403261 -2.866057,-2.917281 1.451054,-1.363196 4.379526,-0.892356 4.941827,0.794548 0.10515,0.315455 0.344937,0.316318 1.638916,0.0059 1.874703,-0.449735 1.86023,-0.423618 1.114473,-2.011053 -1.455605,-3.098428 -5.869763,-3.907899 -9.214353,-1.689733 -2.823943,1.87287 -3.021251,5.608629 -0.430027,8.14203 1.072062,1.048141 2.039635,1.342453 5.339971,1.624287 2.986413,0.255025 3.622686,0.615791 3.622686,2.054055 0,1.737467 -1.14822,2.719724 -3.179255,2.719724 -1.406443,0 -1.930484,-0.298624 -2.663878,-1.518007 -0.329319,-0.547544 -0.627155,-1.034682 -0.661857,-1.082529 -0.126196,-0.173994 -3.02001,0.851439 -3.02001,1.070151 0,0.531051 1.337953,2.782118 2.062165,3.469538 1.611395,1.529524 4.313801,1.843137 7.226348,0.838615 z m 19.23297,-2.843914 c -0.0788,-1.653646 -0.0788,-1.653646 -4.378254,-1.726346 -4.299479,-0.0727 -4.299479,-0.0727 -4.299479,-2.585803 0,-2.513105 0,-2.513105 3.96875,-2.334015 3.968753,0.17909 3.968753,0.17909 3.968753,-1.42388 0,-1.602971 0,-1.602971 -3.968753,-1.794352 -3.96875,-0.191382 -3.96875,-0.191382 -3.96875,-2.167792 0,-1.976411 0,-1.976411 4.299479,-1.884351 4.299484,0.09206 4.299484,0.09206 4.378254,-1.561586 0.0788,-1.653646 0.0788,-1.653646 -6.019274,-1.653646 h -6.098042 v 7.634105 c 0,4.198757 -0.07607,8.361891 -0.169043,9.251408 -0.188219,1.800794 -0.83218,1.67051 9.111359,1.843347 3.25377,0.05656 3.25377,0.05656 3.175,-1.597089 z"
       id="path6457" /></g></svg>
