<?xml version="1.0" encoding="UTF-8" standalone="no"?>
<!-- Created with Inkscape (http://www.inkscape.org/) -->

<svg
   xmlns:dc="http://purl.org/dc/elements/1.1/"
   xmlns:cc="http://creativecommons.org/ns#"
   xmlns:rdf="http://www.w3.org/1999/02/22-rdf-syntax-ns#"
   xmlns:svg="http://www.w3.org/2000/svg"
   xmlns="http://www.w3.org/2000/svg"
   xmlns:sodipodi="http://sodipodi.sourceforge.net/DTD/sodipodi-0.dtd"
   xmlns:inkscape="http://www.inkscape.org/namespaces/inkscape"
   version="1.1"
   id="svg80"
   width="266.66666"
   height="266.66666"
   viewBox="0 0 266.66666 266.66666"
   sodipodi:docname="R2D2.svg"
   inkscape:version="0.92.3 (2405546, 2018-03-11)">
  <metadata
     id="metadata86">
    <rdf:RDF>
      <cc:Work
         rdf:about="">
        <dc:format>image/svg+xml</dc:format>
        <dc:type
           rdf:resource="http://purl.org/dc/dcmitype/StillImage" />
        <dc:title></dc:title>
      </cc:Work>
    </rdf:RDF>
  </metadata>
  <defs
     id="defs84" />
  <sodipodi:namedview
     pagecolor="#ffffff"
     bordercolor="#666666"
     borderopacity="1"
     objecttolerance="10"
     gridtolerance="10"
     guidetolerance="10"
     inkscape:pageopacity="0"
     inkscape:pageshadow="2"
     inkscape:window-width="1920"
     inkscape:window-height="1017"
     id="namedview82"
     showgrid="false"
     inkscape:zoom="3.0450001"
     inkscape:cx="133.33333"
     inkscape:cy="133.33333"
     inkscape:window-x="0"
     inkscape:window-y="30"
     inkscape:window-maximized="1"
     inkscape:current-layer="svg80" />
  <path
     style="fill:#000000;stroke-width:1"
     d="m 106.99507,260.54707 c 0,-2.8239 0.57067,-6.8739 1.26814,-9 0.69748,-2.1261 1.92061,-6.41563 2.71806,-9.5323 1.43369,-5.60325 1.51649,-5.66666 7.39853,-5.66666 3.27173,0 5.94861,-0.6 5.94861,-1.33334 0,-0.73333 -1.5,-1.33333 -3.33334,-1.33333 -4.00374,0 -8.66666,-4.30424 -8.66666,-8 0,-2.49512 -0.88889,-2.66667 -13.817285,-2.66667 h -13.81728 l -5.03211,-12 c -4.67357,-11.14502 -5.30407,-12 -8.84938,-12 h -3.81728 v -37.33333 c 0,-36.44444 -0.0635,-37.33333 -2.66667,-37.33333 -2.60799,0 -2.66667,0.88889 -2.66667,40.39893 v 40.39893 l 4.59032,-0.53589 c 3.58335,-0.41833 5.33934,0.21313 8.00483,2.87863 3.41104,3.41104 3.41444,3.43833 3.3365,26.80362 l -0.078,23.38911 h -25.26016 -25.26015 v -5.13437 c 0,-2.8239 0.57066,-6.8739 1.26814,-9 0.69747,-2.1261 1.9206,-6.41563 2.71806,-9.5323 1.39935,-5.46902 1.63414,-5.66666 6.73186,-5.66666 2.90506,0 5.28194,-0.6 5.28194,-1.33334 0,-0.73333 -0.9,-1.33333 -2,-1.33333 -1.1,0 -2,-0.9812 -2,-2.18044 0,-1.19924 -1.5,-3.57059 -3.33334,-5.26967 -4.03047,-3.73532 -4.25525,-7.62797 -0.64872,-11.2345 l 2.68461,-2.68462 -2.68461,-5.26226 c -1.81343,-3.55461 -2.68461,-7.87559 -2.68461,-13.31539 0,-7.16422 0.29434,-8.05312 2.66667,-8.05312 2.53968,0 2.66666,-0.88889 2.66666,-18.66666 0,-17.77778 -0.12698,-18.66667 -2.66666,-18.66667 -2.59259,0 -2.66667,-0.88889 -2.66667,-32 v -32 h 14.66667 c 13.77777,0 14.66666,0.161616 14.66666,2.666667 0,1.711137 0.88889,2.666667 2.48069,2.666667 2.22833,0 2.55514,-1.52596 3.2125,-15 1.09771,-22.500181 6.94523,-36.415855 20.71446,-49.295357 13.258995,-12.4022391 26.798275,-17.64096704 45.592355,-17.64096704 18.79408,0 32.33336,5.23872794 45.59235,17.64096704 13.76924,12.879502 19.61676,26.795176 20.71446,49.295357 0.65736,13.47404 0.98417,15 3.21249,15 1.5918,0 2.4807,-0.95553 2.4807,-2.666667 0,-2.505051 0.88889,-2.666667 14.66666,-2.666667 h 14.66667 v 32 c 0,31.11111 -0.0741,32 -2.66667,32 -2.53968,0 -2.66666,0.88889 -2.66666,18.66667 0,17.77777 0.12693,18.66666 2.66666,18.66666 2.37232,0 2.66667,0.8889 2.66667,8.05312 0,5.4398 -0.87119,9.76078 -2.68461,13.31539 l -2.68462,5.26226 2.68462,2.68462 c 3.60653,3.60653 3.38176,7.49918 -0.64872,11.2345 -1.83334,1.69908 -3.33334,4.07043 -3.33334,5.26967 0,1.19924 -0.9,2.18044 -2,2.18044 -1.1,0 -2,0.6 -2,1.33333 0,0.73334 2.37459,1.33334 5.27687,1.33334 h 5.27688 l 2.72312,9.14374 c 1.49772,5.02907 2.72313,11.62907 2.72313,14.66667 v 5.52292 h -25.2198 -25.21978 l -0.12493,-23.38259 -0.12494,-23.38258 3.42103,-3.42104 c 2.67192,-2.67192 4.4262,-3.3037 8.01136,-2.88515 l 4.5904,0.53589 v -40.39893 c 0,-39.51004 -0.0587,-40.39893 -2.66667,-40.39893 -2.60317,0 -2.66667,0.88889 -2.66667,37.33333 v 37.33333 h -3.81727 c -3.54531,0 -4.17582,0.85498 -8.84939,12 l -5.03211,12 h -13.81728 c -12.92838,0 -13.81728,0.17155 -13.81728,2.66667 0,3.69576 -4.66292,8 -8.66666,8 -1.83334,0 -3.33334,0.6 -3.33334,1.33333 0,0.73334 2.67459,1.33334 5.94354,1.33334 h 5.94354 l 2.72312,9.14374 c 1.49772,5.02907 2.72314,11.62907 2.72314,14.66667 v 5.52292 h -26.66667 -26.66667 z m 48,-2.62363 c 0,-1.33356 -0.92324,-5.53356 -2.05165,-9.33333 -1.87252,-6.30544 -2.3964,-6.90867 -6,-6.90867 -3.71752,0 -3.94835,0.3118 -3.94835,5.33333 v 5.33334 h -9.33333 -9.33333 v -5.33334 c 0,-5.00832 -0.23799,-5.33333 -3.90539,-5.33333 -3.57809,0 -4.08093,0.60384 -6,7.20521 -3.56538,12.26447 -4.91328,11.46146 19.23872,11.46146 19.73469,0 21.33333,-0.1817 21.33333,-2.42467 z m -82.666665,-7.34441 c 0,-1.21794 -1.28111,-1.58104 -4.11219,-1.16554 -2.82005,0.4139 -5.31686,-0.2871 -7.94601,-2.23092 -2.71655,-2.00844 -5.79237,-2.83446 -10.55447,-2.83446 h -6.72066 v -5.33334 c 0,-4.75845 -0.3491,-5.33333 -3.23872,-5.33333 -2.77145,0 -3.54093,1.03955 -5.33334,7.20521 -3.55371,12.22434 -4.74549,11.46146 17.90539,11.46146 15.72859,0 20,-0.37783 20,-1.76908 z m 162.666665,-0.65559 c 0,-1.33356 -0.92324,-5.53356 -2.05165,-9.33333 -1.75082,-5.89564 -2.53286,-6.90867 -5.33334,-6.90867 -2.93973,0 -3.28168,0.55572 -3.28168,5.33333 v 5.33334 h -6.72065 c -4.76211,0 -7.83792,0.82602 -10.55448,2.83446 -2.62915,1.94382 -5.12596,2.64482 -7.94601,2.23092 -2.83108,-0.4155 -4.11219,-0.0524 -4.11219,1.16554 0,1.39125 4.27142,1.76908 20,1.76908 18.44572,0 20,-0.18843 20,-2.42467 z m -97.33333,-9.57533 c 0,-6.51852 -0.0889,-6.66667 -4,-6.66667 -3.91111,0 -4,0.14815 -4,6.66667 0,6.51852 0.0889,6.66666 4,6.66666 3.91111,0 4,-0.14814 4,-6.66666 z m -66.783395,2.14064 c 1.01446,-1.22235 1.41299,-6.76942 1.16326,-16.19134 -0.31638,-11.93684 -0.76981,-14.57741 -2.7132,-15.80049 -1.69874,-1.06912 -2.96793,-1.06912 -4.66667,0 -1.94338,1.22308 -2.39681,3.86365 -2.7132,15.80049 -0.39379,14.85744 0.49896,18.0507 5.04654,18.0507 1.28708,0 3.03455,-0.83671 3.88327,-1.85936 z m -5.96669,-9.21056 c -1.50096,-3.91146 -0.0169,-13.59675 2.08342,-13.59675 2.59491,0 2.90982,14.14117 0.33403,14.99976 -0.91628,0.30543 -2.00413,-0.32592 -2.41745,-1.40301 z m 139.300025,9.21056 c 1.01446,-1.22235 1.41299,-6.76942 1.16326,-16.19134 -0.31639,-11.93684 -0.76982,-14.57741 -2.7132,-15.80049 -1.69874,-1.06912 -2.96793,-1.06912 -4.66667,0 -1.94338,1.22308 -2.39681,3.86365 -2.7132,15.80049 -0.3938,14.85744 0.49896,18.0507 5.04653,18.0507 1.28708,0 3.03456,-0.83671 3.88328,-1.85936 z m -5.96669,-9.21056 c -1.50097,-3.91146 -0.0169,-13.59675 2.08341,-13.59675 2.59491,0 2.90983,14.14117 0.33404,14.99976 -0.91627,0.30543 -2.00413,-0.32592 -2.41745,-1.40301 z M 56.328405,232.34811 c 0,-6.51852 -0.0889,-6.66667 -4,-6.66667 -3.91111,0 -4,0.14815 -4,6.66667 0,6.51852 0.0889,6.66666 4,6.66666 3.91111,0 4,-0.14814 4,-6.66666 z m 162.666665,0 c 0,-6.51852 -0.0889,-6.66667 -4,-6.66667 -3.91111,0 -4,0.14815 -4,6.66667 0,6.51852 0.0889,6.66666 4,6.66666 3.91111,0 4,-0.14814 4,-6.66666 z m -96.59486,-5.44951 c 1.37403,-2.22323 -1.71628,-4.77268 -3.55563,-2.93333 -1.53856,1.53856 -0.57562,4.38284 1.48383,4.38284 0.64677,0 1.57908,-0.65228 2.0718,-1.44951 z m 16.59486,-1.21716 c 0,-2.22223 -0.88889,-2.66667 -5.33333,-2.66667 -4.44444,0 -5.33333,0.44444 -5.33333,2.66667 0,2.22223 0.88889,2.66667 5.33333,2.66667 4.44444,0 5.33333,-0.44444 5.33333,-2.66667 z m 10.0718,1.21716 c 1.37403,-2.22323 -1.71628,-4.77268 -3.55562,-2.93333 -1.53856,1.53856 -0.57563,4.38284 1.48382,4.38284 0.64678,0 1.57908,-0.65228 2.0718,-1.44951 z M 56.328405,215.01477 c 0,-5.03704 -0.22222,-5.33333 -4,-5.33333 -2.9442,0 -4,0.62556 -4,2.36999 0,1.3035 -0.93402,3.7035 -2.0756,5.33333 -2.0539,2.93236 -2.01208,2.96335 4,2.96335 h 6.0756 z m 164.742265,2.36999 c -1.14157,-1.62983 -2.0756,-4.02983 -2.0756,-5.33333 0,-1.74443 -1.0558,-2.36999 -4,-2.36999 -3.77777,0 -4,0.29629 -4,5.33333 v 5.33334 h 6.0756 c 6.01208,0 6.05391,-0.0309 4,-2.96335 z M 93.160595,215.632 c -0.43254,-1.1272 -1.73931,-5.3272 -2.90393,-9.33333 -1.93754,-6.66492 -2.44655,-7.2839 -5.98987,-7.2839 -4.30706,0 -4.35907,-0.52602 1.2194,12.33334 2.0519,4.72998 3.47064,6.33333 5.60414,6.33333 2.02214,0 2.62695,-0.59873 2.07026,-2.04944 z m 27.167815,-7.28389 v -9.33334 h -13.47599 c -10.227035,0 -13.324485,0.40182 -12.847605,1.66667 0.3456,0.91667 1.62656,5.11667 2.84656,9.33333 l 2.21819,7.66667 h 10.629425 10.62942 z m 21.33333,0 v -9.33334 h -8 -8 v 9.33334 9.33333 h 8 8 z m 28.59493,2.04944 c 1.16462,-4.00614 2.47138,-8.20614 2.90392,-9.33334 0.67554,-1.76038 -1.11417,-2.04944 -12.68953,-2.04944 h -13.47599 v 9.33334 9.33333 h 10.57206 10.57205 z m 11.58062,0.95056 c 5.58578,-12.87624 5.53464,-12.33334 1.16202,-12.33334 -3.63797,0 -4.09444,0.56924 -6.14793,7.66667 -1.22,4.21667 -2.50096,8.41667 -2.84657,9.33333 -0.3809,1.01026 0.49672,1.66667 2.22833,1.66667 2.13349,0 3.55224,-1.60335 5.60415,-6.33333 z m -139.437085,2.21716 c 1.37403,-2.22323 -1.71628,-4.77268 -3.55562,-2.93334 -1.53857,1.53856 -0.57563,4.38284 1.48382,4.38284 0.64678,0 1.57909,-0.65228 2.0718,-1.4495 z m 186.666665,0 c 1.37403,-2.22323 -1.71628,-4.77268 -3.55563,-2.93334 -1.53856,1.53856 -0.57562,4.38284 1.48383,4.38284 0.64677,0 1.57908,-0.65228 2.0718,-1.4495 z M 56.328405,193.68144 v -10.66666 h -9.33333 -9.33334 v 4.631 c 0,2.54705 1.31956,7.34705 2.93236,10.66666 2.8729,5.91329 3.06213,6.03567 9.33333,6.03567 h 6.40098 z m 170.400975,4.631 c 1.6128,-3.31961 2.93236,-8.11961 2.93236,-10.66666 v -4.631 h -9.33334 -9.33333 v 10.66666 10.66667 h 6.40097 c 6.27122,0 6.46044,-0.1224 9.33334,-6.03567 z m -31.73431,-60.631 V 81.681444 H 133.66174 72.328405 v 55.999996 56 h 61.333335 61.33333 z m -68.72727,50.0606 c -2.06298,-2.06297 -3.27273,-4.7961 -3.27273,-7.39393 0,-2.59783 1.20975,-5.33096 3.27273,-7.39393 2.06298,-2.06299 4.79611,-3.27274 7.39394,-3.27274 2.59783,0 5.33096,1.20975 7.39393,3.27274 2.06299,2.06297 3.27274,4.7961 3.27274,7.39393 0,2.59783 -1.20975,5.33096 -3.27274,7.39393 -2.06297,2.06299 -4.7961,3.27274 -7.39393,3.27274 -2.59783,0 -5.33096,-1.20975 -7.39394,-3.27274 z m 11.34078,-3.99654 c 3.54195,-4.26778 -1.66031,-10.8237 -6.28017,-7.91432 -4.61644,2.90721 -2.97177,9.85026 2.33333,9.85026 1.28708,0 3.06316,-0.87117 3.94684,-1.93594 z m 40.79543,4.30593 c -4.66696,-6.66303 -1.19187,-18.36999 5.45294,-18.36999 4.52683,0 8.38274,4.90648 8.38274,10.66667 0,9.14079 -9.22952,14.27953 -13.83568,7.70332 z m 7.9244,-5.03665 c 1.09828,-3.4604 -0.44996,-8.29256 -2.44648,-7.63563 -0.85444,0.28115 -1.75098,1.8578 -1.9923,3.50369 -0.88817,6.05754 2.75211,9.44618 4.43878,4.13194 z M 88.328405,164.34811 c 0,-2.56585 0.64046,-2.76633 7.66667,-2.39987 5.748205,0.2998 7.666665,0.90034 7.666665,2.39987 0,1.49953 -1.91846,2.10007 -7.666665,2.39987 -7.02621,0.36646 -7.66667,0.16598 -7.66667,-2.39987 z m 34.666665,-14.66667 v -17.33333 h 10.66667 10.66667 v 17.33333 17.33334 h -10.66667 -10.66667 z m 16,0 v -12 h -5.33333 -5.33333 v 12 12 h 5.33333 5.33333 z m -50.666665,6.66667 c 0,-2.56585 0.64046,-2.76633 7.66667,-2.39987 5.748205,0.2998 7.666665,0.90034 7.666665,2.39987 0,1.49953 -1.91846,2.10007 -7.666665,2.39987 -7.02621,0.36646 -7.66667,0.16598 -7.66667,-2.39987 z m 0,-8 c 0,-2.56585 0.64046,-2.76633 7.66667,-2.39987 5.748205,0.2998 7.666665,0.90034 7.666665,2.39987 0,1.49953 -1.91846,2.10007 -7.666665,2.39987 -7.02621,0.36646 -7.66667,0.16598 -7.66667,-2.39987 z m 0,-8 c 0,-2.56585 0.64046,-2.76633 7.66667,-2.39987 5.748205,0.2998 7.666665,0.90034 7.666665,2.39987 0,1.49953 -1.91846,2.10007 -7.666665,2.39987 -7.02621,0.36646 -7.66667,0.16598 -7.66667,-2.39987 z m 17.666665,-11.60399 c -4.03435,-0.52599 -4.33333,-0.91651 -4.33333,-5.66019 v -5.09522 l 7,-0.87381 c 7.96423,-0.99417 46.114,-0.86804 52.66667,0.17413 4.00248,0.63657 4.33333,1.07374 4.33333,5.72575 0,4.65028 -0.33235,5.09006 -4.33333,5.73416 -5.0965,0.82046 -49.03277,0.81663 -55.33334,-0.005 z m 33,-5.72934 c 0,-0.80808 -5.77777,-1.33334 -14.66666,-1.33334 -8.88889,0 -14.66667,0.52526 -14.66667,1.33334 0,0.80808 5.77778,1.33333 14.66667,1.33333 8.88889,0 14.66666,-0.52525 14.66666,-1.33333 z m 21.33334,0 c 0,-0.73334 -2.4,-1.33334 -5.33334,-1.33334 -2.93333,0 -5.33333,0.6 -5.33333,1.33334 0,0.73333 2.4,1.33333 5.33333,1.33333 2.93334,0 5.33334,-0.6 5.33334,-1.33333 z m -55.66667,-10.36909 c -2.50311,-0.40304 -3,-1.32646 -3,-5.57526 0,-4.7148 0.32117,-5.14329 4.33333,-5.7814 6.55267,-1.04217 44.70244,-1.1683 52.66667,-0.17413 l 7,0.87381 v 5.02607 5.02607 l -7,0.85391 c -6.99821,0.8537 -48.33536,0.66304 -54,-0.24907 z m 13,-5.63091 c 0,-0.73334 -2.4,-1.33334 -5.33333,-1.33334 -2.93334,0 -5.33334,0.6 -5.33334,1.33334 0,0.73333 2.4,1.33333 5.33334,1.33333 2.93333,0 5.33333,-0.6 5.33333,-1.33333 z m 40,0 c 0,-0.80808 -5.77777,-1.33334 -14.66667,-1.33334 -8.88889,0 -14.66666,0.52526 -14.66666,1.33334 0,0.80808 5.77777,1.33333 14.66666,1.33333 8.8889,0 14.66667,-0.52525 14.66667,-1.33333 z m -56,-16.000003 V 84.34811 h 32 32 v 6.666667 6.666664 h -32 -32 z m 58.66667,0 c 0,-0.844444 -9.77778,-1.333334 -26.66667,-1.333334 -16.88889,0 -26.66667,0.48889 -26.66667,1.333334 0,0.844444 9.77778,1.333333 26.66667,1.333333 16.88889,0 26.66667,-0.488889 26.66667,-1.333333 z M 56.328405,159.01478 v -18.66667 h -6.66667 -6.66666 v 18.66667 18.66666 h 6.66666 6.66667 z m 167.999995,0 v -18.66667 h -6.66666 -6.66667 v 18.66667 18.66666 h 6.66667 6.66666 z M 56.328405,108.34811 V 81.681444 h -9.33333 -9.33334 v 26.666666 26.66667 h 9.33334 9.33333 z m 173.333335,0 V 81.681444 h -9.33334 -9.33333 v 26.666666 26.66667 h 9.33333 9.33334 z M 66.995075,103.01478 c 0,-15.111114 -0.14815,-16.000003 -2.66667,-16.000003 -2.51852,0 -2.66667,0.888889 -2.66667,16.000003 0,15.11111 0.14815,16 2.66667,16 2.51852,0 2.66667,-0.88889 2.66667,-16 z m 138.666665,0 c 0,-15.111114 -0.14815,-16.000003 -2.66667,-16.000003 -2.51852,0 -2.66667,0.888889 -2.66667,16.000003 0,15.11111 0.14815,16 2.66667,16 2.51852,0 2.66667,-0.88889 2.66667,-16 z M 194.99507,73.681444 c 0,-2.628019 -0.88889,-2.666667 -61.33333,-2.666667 -60.444445,0 -61.333335,0.03865 -61.333335,2.666667 0,2.628018 0.88889,2.666666 61.333335,2.666666 60.44444,0 61.33333,-0.03865 61.33333,-2.666666 z m 0,-9.333333 c 0,-0.770371 -4.22222,-1.333334 -10,-1.333334 h -10 v -9.333333 -9.333333 h 8 c 4.4,0 8,-0.329796 8,-0.73288 0,-1.822166 -4.78002,-9.877681 -9.65268,-16.267119 l -5.33828,-7 h -19.83785 -19.83785 v -8 c 0,-7.1111115 -0.2963,-8.0000004 -2.66667,-8.0000004 -2.37037,0 -2.66667,0.8888889 -2.66667,8.0000004 v 8 H 111.15722 91.319365 l -5.33827,7 c -4.87266,6.389438 -9.65269,14.444953 -9.65269,16.267119 0,0.403084 7.8,0.73288 17.33333,0.73288 h 17.333335 v 9.333333 9.333333 H 91.661735 c -12,0 -19.33333,0.505747 -19.33333,1.333334 0,0.869565 21.33333,1.333333 61.333335,1.333333 40,0 61.33333,-0.463768 61.33333,-1.333333 z m -37.08192,-4.05194 c -5.78916,-5.39342 -1.77816,-15.94806 6.06062,-15.94806 3.8926,0 9.68797,5.58322 9.68797,9.333333 0,3.750114 -5.79537,9.333333 -9.68797,9.333333 -1.7284,0 -4.45567,-1.223373 -6.06062,-2.718606 z m 9.08192,-4.614727 c 1.32426,-1.595621 1.32426,-2.404378 0,-4 -3.33194,-4.014753 -8.08129,-0.942977 -6.18449,4 0.42211,1.1 1.61283,2 2.64605,2 1.03323,0 2.62552,-0.9 3.53844,-2 z M 117.66174,39.014778 v -16 h 16 16 v 16 16 h -16 -16 z m 26.66667,0 V 28.348112 h -10.66667 -10.66667 v 10.666666 10.666666 h 10.66667 10.66667 z m -16,5.333333 c -1.46667,-1.466666 -2.66667,-3.866666 -2.66667,-5.333333 0,-3.434085 4.56591,-8 8,-8 3.43408,0 8,4.565915 8,8 0,1.466667 -1.2,3.866667 -2.66667,5.333333 -1.46666,1.466667 -3.86666,2.666667 -5.33333,2.666667 -1.46667,0 -3.86667,-1.2 -5.33333,-2.666667 z m 7.40513,-4.116176 c 1.37403,-2.223225 -1.71628,-4.77268 -3.55562,-2.933333 -1.53857,1.538565 -0.57563,4.382843 1.48382,4.382843 0.64677,0 1.57908,-0.65228 2.0718,-1.44951 z m -30.0718,13.449509 v -4 H 89.813075 73.964405 l -0.58708,4 -0.58707,4 h 16.43574 16.435745 z m 88.28441,0 c -0.56045,-3.818628 -0.8825,-4 -7.10241,-4 -6.35037,0 -6.51533,0.10128 -6.51533,4 0,3.943832 0.0997,4 7.10241,4 h 7.1024 z M 125.66174,9.8231747 V 4.6315712 l -5.66667,1.2607822 c -6.05025,1.3461273 -19.66666,7.1494836 -19.66666,8.3819936 0,0.407237 5.7,0.740432 12.66666,0.740432 h 12.66667 z m 41.33333,4.4511723 c 0,-1.23251 -13.61641,-7.0358663 -19.66666,-8.3819936 l -5.66667,-1.2607822 v 5.1916035 5.1916043 h 12.66667 c 6.96666,0 12.66666,-0.333195 12.66666,-0.740432 z"
     id="path90"
     inkscape:connector-curvature="0" />
</svg>
